<?xml version="1.0" encoding="UTF-8" standalone="no"?>
<svg width="512" height="512" viewBox="0 0 512 512" fill="none" xmlns="http://www.w3.org/2000/svg">
    <rect width="512" height="512" fill="#c0e0ff"/>
    <!-- Beach background -->
    <rect y="300" width="512" height="212" fill="#f0d090"/>
    <!-- Ocean -->
    <path d="M 0 300 Q 128 280 256 300 Q 384 320 512 300 L 512 350 Q 384 370 256 350 Q 128 330 0 350 Z" fill="#60a0e0"/>
    <!-- Sun -->
    <circle cx="400" cy="100" r="50" fill="#ffdd66"/>
    <!-- Palm tree -->
    <rect x="100" y="200" width="20" height="120" fill="#8b4513"/>
    <path d="M 110 200 Q 70 150 50 170 Q 90 160 110 200" fill="#228b22"/>
    <path d="M 110 200 Q 150 150 170 170 Q 130 160 110 200" fill="#228b22"/>
    <path d="M 110 180 Q 70 130 50 150 Q 90 140 110 180" fill="#228b22"/>
    <path d="M 110 180 Q 150 130 170 150 Q 130 140 110 180" fill="#228b22"/>
    <!-- Person silhouette -->
    <ellipse cx="300" cy="340" rx="20" ry="10" fill="#444"/>
    <rect x="295" y="280" width="10" height="60" fill="#ff9999"/>
    <circle cx="300" cy="270" r="15" fill="#ff9999"/>
    <path d="M 280 290 L 270 330" stroke="#ff9999" stroke-width="5"/>
    <path d="M 320 290 L 330 330" stroke="#ff9999" stroke-width="5"/>
    <text x="156" y="440" font-family="Arial" font-size="24" fill="#444">Beach Lifestyle</text>
</svg>